<svg version="1.0" xmlns="http://www.w3.org/2000/svg" width="140.000000" height="140.000000" preserveAspectRatio="xMidYMid meet"><rect id="backgroundrect" width="100%" height="100%" x="0" y="0" fill="none" stroke="none"/>
<metadata>
Created by potrace 1.16, written by Peter Selinger 2001-2019
</metadata>

<g class="currentLayer" style=""><title>Layer 1</title><g transform="translate(0, 140) scale(0.1, -0.1)" fill="#ffffff" stroke="none" id="svg_1" class="selected" fill-opacity="1">
<path d="M685 1350 c-19 -20 -31 -26 -36 -19 -5 8 -22 1 -55 -22 -116 -82 -124 -96 -124 -219 0 -59 -4 -90 -11 -90 -8 0 -10 -23 -7 -72 3 -60 7 -73 26 -86 12 -8 22 -23 22 -33 0 -18 23 -75 58 -146 21 -42 11 -50 -38 -28 -62 28 -174 24 -237 -8 -183 -91 -230 -318 -97 -466 59 -65 114 -93 199 -98 39 -2 101 -13 140 -25 54 -16 96 -21 190 -21 104 1 130 4 199 28 123 42 202 91 281 171 48 49 95 106 95 114 0 3 -15 20 -32 36 -36 33 -82 57 -156 80 -26 8 -90 36 -142 62 l-95 47 -3 42 c-2 31 3 51 22 80 13 21 34 68 46 105 12 36 28 69 36 72 10 4 14 24 14 76 0 38 -4 70 -9 70 -5 0 -10 44 -13 98 -3 87 -7 102 -28 129 -33 40 -138 105 -172 107 -22 1 -28 6 -28 24 0 30 -11 28 -45 -8z m47 -337 c29 3 69 9 90 12 32 6 38 4 54 -19 29 -45 7 -196 -42 -291 -26 -49 -62 -70 -120 -70 -53 1 -75 14 -107 66 -55 85 -76 264 -37 307 19 20 22 20 65 6 29 -10 63 -14 97 -11z m52 -467 c6 -27 67 -96 86 -96 5 0 37 -13 72 -29 35 -16 103 -44 152 -62 l89 -33 -73 -68 c-39 -38 -78 -68 -86 -68 -8 0 -14 -4 -14 -10 0 -5 -5 -10 -10 -10 -6 0 -34 -11 -63 -25 -64 -31 -207 -51 -290 -41 l-58 8 35 38 c62 69 80 115 80 205 1 70 -3 88 -32 144 -17 35 -30 66 -28 70 2 3 33 6 69 6 64 0 66 -1 71 -29z m-290 9 c38 -16 90 -67 113 -112 7 -14 13 -53 13 -87 0 -51 -5 -70 -28 -107 -37 -57 -59 -75 -111 -94 -55 -19 -87 -19 -142 0 -65 23 -113 75 -134 146 -17 56 -17 63 -2 112 31 97 107 156 203 157 28 0 68 -7 88 -15z" id="svg_2" fill="#ffffff" fill-opacity="1"/>
<path d="M382 478 c-15 -15 -15 -51 0 -66 9 -9 1 -12 -39 -12 -72 0 -83 -6 -83 -46 l0 -34 59 0 c57 0 84 -11 61 -25 -14 -9 -13 -48 2 -63 25 -25 55 -12 111 47 32 33 57 67 57 76 0 9 -25 43 -57 76 -56 59 -86 72 -111 47z" id="svg_3" fill="#ffffff" fill-opacity="1"/>
</g></g></svg>