<svg width="140" height="140" viewBox="0 0 140 140" xmlns="http://www.w3.org/2000/svg" xmlns:xlink="http://www.w3.org/1999/xlink"><defs><linearGradient x1="4.806%" y1="4.806%" x2="100%" y2="100%" id="b"><stop stop-color="#F1FCFA" offset="0%"/><stop stop-color="#E1F3EF" offset="100%"/></linearGradient><rect id="a" x="0" y="0" width="92" height="58" rx="4"/><mask id="c" maskContentUnits="userSpaceOnUse" maskUnits="objectBoundingBox" x="0" y="0" width="92" height="58" fill="#fff"><use xlink:href="#a"/></mask></defs><g fill="none" fill-rule="evenodd"><circle fill="url(#b)" cx="70" cy="70" r="70"/><g transform="translate(24 41)"><path d="M36.96 56l-1.489 7.712-4.034 3.898c-.793.767-.537 1.39.565 1.39h28.996c1.106 0 1.361-.62.56-1.396l-4.05-3.919L56.036 56" fill="#D7D7D7"/><use stroke="#727272" mask="url(#c)" stroke-width="6" fill="#FFF" xlink:href="#a"/><path fill="#D7D7D7" d="M10 10h30v18H10z"/><path d="M50 11h30m-30 4h14" stroke="#24D0AA" stroke-width="2" stroke-linecap="square"/><path d="M11 35h69m-69 4h69m-69 4h69m-69 4h69M50 23h30m-30 4h30" stroke="#D7D7D7" stroke-width="2" stroke-linecap="square"/></g></g></svg>