<svg version="1.0" xmlns="http://www.w3.org/2000/svg" width="140.000000" height="140.000000" preserveAspectRatio="xMidYMid meet" style=""><rect id="backgroundrect" width="100%" height="100%" x="0" y="0" fill="none" stroke="none"/>
<metadata>
Created by potrace 1.16, written by Peter Selinger 2001-2019
</metadata>

<g class="currentLayer" style=""><title>Layer 1</title><g transform="translate(0.000000,140.000000) scale(0.100000,-0.100000)" fill="#ffffff" stroke="none" id="svg_1" class="" fill-opacity="1">
<path d="M288 1379 c-15 -8 -18 -25 -18 -94 0 -73 3 -86 19 -95 28 -14 38 -13 61 10 16 16 20 33 20 85 0 52 -4 69 -20 85 -22 22 -37 24 -62 9z" id="svg_2" fill="#ffffff" fill-opacity="1"/>
<path d="M876 1374 c-12 -11 -16 -35 -16 -89 0 -68 2 -76 25 -91 23 -15 27 -15 50 0 23 15 25 23 25 91 0 78 -13 105 -50 105 -10 0 -26 -7 -34 -16z" id="svg_3" fill="#ffffff" fill-opacity="1"/>
<path d="M115 1248 c-54 -42 -55 -51 -55 -520 0 -392 2 -436 18 -467 36 -71 35 -71 345 -72 152 0 277 1 278 3 0 2 -3 11 -7 21 -6 16 -26 17 -272 17 l-265 -1 -26 26 -26 25 0 348 0 347 508 3 507 2 0 -129 c0 -108 3 -130 16 -135 9 -3 18 -6 20 -6 2 0 4 106 4 235 0 260 -4 281 -60 310 -16 8 -47 15 -70 15 -34 0 -40 -3 -40 -20 0 -29 -26 -76 -45 -84 -54 -20 -102 8 -111 65 l-7 39 -217 0 -217 0 -1 -31 c-2 -72 -89 -107 -131 -53 -12 15 -21 40 -21 55 0 28 -2 29 -49 29 -34 0 -56 -6 -76 -22z" id="svg_4" fill="#ffffff" fill-opacity="1"/>
<path d="M239 900 c0 -5 -1 -38 -2 -72 l-1 -63 71 -3 71 -3 4 66 c1 36 -1 70 -6 76 -13 12 -136 12 -137 -1z" id="svg_5" fill="#ffffff" fill-opacity="1"/>
<path d="M447 904 c-4 -4 -7 -38 -7 -76 l0 -68 75 0 76 0 -3 73 -3 72 -65 3 c-36 2 -69 0 -73 -4z" id="svg_6" fill="#ffffff" fill-opacity="1"/>
<path d="M657 904 c-4 -4 -7 -38 -7 -76 l0 -68 75 0 76 0 -3 73 -3 72 -65 3 c-36 2 -69 0 -73 -4z" id="svg_7" fill="#ffffff" fill-opacity="1"/>
<path d="M837 904 c-4 -4 -7 -38 -7 -76 l0 -68 75 0 76 0 -3 73 -3 72 -65 3 c-36 2 -69 0 -73 -4z" id="svg_8" fill="#ffffff" fill-opacity="1"/>
<path d="M242 618 l3 -73 70 0 70 0 3 73 3 72 -76 0 -76 0 3 -72z" id="svg_9" fill="#ffffff" fill-opacity="1"/>
<path d="M452 618 l3 -73 70 0 70 0 0 70 0 70 -73 3 -73 3 3 -73z" id="svg_10" fill="#ffffff" fill-opacity="1"/>
<path d="M654 676 c-3 -7 -4 -40 -2 -72 3 -51 6 -59 24 -62 16 -2 28 6 42 30 11 18 34 46 51 62 48 46 42 56 -39 56 -50 0 -72 -4 -76 -14z" id="svg_11" fill="#ffffff" fill-opacity="1"/>
<path d="M923 671 c-108 -37 -178 -110 -210 -220 -20 -71 -12 -138 27 -218 92 -186 335 -231 493 -92 184 161 114 463 -123 533 -69 21 -122 20 -187 -3z m203 -56 c89 -37 157 -138 158 -234 0 -76 -19 -126 -67 -179 -77 -83 -176 -110 -277 -77 -109 36 -180 134 -180 247 1 128 79 226 205 259 38 10 118 2 161 -16z" id="svg_12" fill="#ffffff" fill-opacity="1"/>
<path d="M996 582 c-10 -16 -9 -213 0 -222 7 -7 53 -10 115 -8 104 3 104 3 104 28 0 24 -2 25 -82 28 l-83 3 0 70 c0 39 -5 79 -10 90 -11 19 -35 26 -44 11z" id="svg_13" fill="#ffffff" fill-opacity="1"/>
<path d="M244 466 c-3 -7 -4 -40 -2 -72 l3 -59 73 -3 72 -3 0 76 0 75 -70 0 c-50 0 -72 -4 -76 -14z" id="svg_14" fill="#ffffff" fill-opacity="1"/>
<path d="M454 467 c-3 -8 -4 -41 -2 -73 l3 -59 73 -3 73 -3 -3 73 -3 73 -68 3 c-51 2 -69 -1 -73 -11z" id="svg_15" fill="#ffffff" fill-opacity="1"/>
</g></g></svg>