<svg width="140" height="140" viewBox="0 0 140 140" xmlns="http://www.w3.org/2000/svg"><defs><linearGradient x1="4.806%" y1="4.806%" x2="100%" y2="100%" id="a"><stop stop-color="#F1FCFA" offset="0%"/><stop stop-color="#E1F3EF" offset="100%"/></linearGradient></defs><g fill="none" fill-rule="evenodd"><circle fill="url(#a)" cx="70" cy="70" r="70"/><path d="M94.185 108.215H47.188A5.189 5.189 0 0142 103.027V34.148a5.189 5.189 0 015.188-5.189h32.94l19.246 19.245v54.823a5.189 5.189 0 01-5.189 5.188" fill="#FFF"/><path d="M80.129 28.96v14.056a5.189 5.189 0 005.188 5.188h14.057L80.129 28.96z" fill="#D7D7D7"/><path d="M51.031 63.474h39.395m-39.395 5.753h35.57M50.629 74.98h31.564m-31.564 5.752h27.727m-27.727 5.753H74.52" stroke="#D7D7D7" stroke-width="2"/><path fill="#B7B7B7" d="M87.28 86.26l2.92-7.496 33.002-33.002 4.575 4.577L94.776 83.34z"/><path d="M127.778 50.339l-4.577-4.577 5.717-5.717a3.235 3.235 0 114.577 4.576l-5.717 5.718z" fill="#727272"/><path fill="#D7D7D7" d="M90.2 78.764l4.577 4.577L86.6 86.94z"/><path d="M122.598 46.366l4.577 4.577" stroke="#F2F2F2" stroke-width="2"/><path d="M66.906 43.59a8.352 8.352 0 11-4.043-5.054m-8.247 7.016l3.052 3.052 10.236-10.238" stroke="#3CD2A0" stroke-width="2"/></g></svg>