<svg version="1.0" xmlns="http://www.w3.org/2000/svg" width="140.000000" height="140.000000" preserveAspectRatio="xMidYMid meet"><rect id="backgroundrect" width="100%" height="100%" x="0" y="0" fill="none" stroke="none"/>
<metadata>
Created by potrace 1.16, written by Peter Selinger 2001-2019
</metadata>

<g class="currentLayer" style=""><title>Layer 1</title><g transform="translate(0, 140) scale(0.1, -0.1)" fill="#ffffff" stroke="none" id="svg_1" class="selected" fill-opacity="1">
<path d="M335 1351 c-38 -10 -81 -23 -95 -28 -51 -21 -180 -84 -180 -87 0 -9 119 -256 124 -256 2 0 54 36 115 79 118 85 123 96 46 103 -38 4 -39 4 -13 12 47 14 76 -1 108 -53 17 -27 64 -79 105 -115 41 -37 77 -77 81 -89 4 -12 24 -47 44 -77 20 -30 44 -69 53 -86 l16 -32 -29 -5 c-33 -7 -80 -68 -80 -104 0 -20 -5 -23 -44 -23 -25 0 -48 -5 -51 -10 -4 -6 -6 -101 -6 -212 0 -152 4 -203 13 -210 21 -12 162 -10 176 4 8 8 12 63 12 180 0 158 1 168 19 168 21 0 45 23 34 33 -3 4 -17 0 -30 -8 -22 -15 -23 -14 -23 8 0 29 -18 47 -48 47 -20 0 -23 4 -20 32 4 44 48 75 85 62 26 -9 28 -13 25 -62 -3 -47 -1 -55 27 -82 18 -18 28 -37 24 -46 -10 -26 17 -107 48 -141 28 -33 29 -36 29 -145 0 -89 3 -115 16 -129 16 -18 17 -17 35 5 16 20 19 42 19 135 0 110 0 111 29 137 33 29 52 97 44 152 -5 32 -43 72 -69 72 -8 0 -14 10 -14 23 0 29 -33 82 -63 102 -27 17 -68 12 -88 -11 -9 -11 -15 -11 -35 3 -22 14 -23 17 -8 28 24 17 12 80 -32 164 -43 83 -53 140 -30 176 27 41 57 32 115 -31 28 -31 54 -66 57 -80 4 -16 -6 -49 -31 -103 -27 -57 -36 -87 -31 -105 3 -14 10 -26 16 -26 10 0 100 148 119 196 11 28 10 37 -13 82 -14 28 -39 73 -56 99 -39 62 -38 77 3 32 17 -20 48 -42 67 -49 19 -7 88 -37 152 -67 64 -29 128 -53 141 -53 27 0 52 23 43 39 -6 9 -185 109 -369 204 -59 31 -132 64 -162 72 -30 9 -83 28 -117 42 -55 22 -191 54 -221 52 -7 0 -43 -9 -82 -18z m354 -885 c8 -9 11 -56 9 -142 l-3 -129 -67 -3 -68 -3 0 139 c0 76 3 142 7 145 12 13 110 7 122 -7z" id="svg_2" fill="#ffffff" fill-opacity="1"/>
</g></g></svg>