<svg width="140" height="140" viewBox="0 0 140 140" xmlns="http://www.w3.org/2000/svg"><defs><linearGradient x1="4.806%" y1="4.806%" x2="100%" y2="100%" id="a"><stop stop-color="#F1FCFA" offset="0%"/><stop stop-color="#E1F3EF" offset="100%"/></linearGradient></defs><g fill="none" fill-rule="evenodd"><circle fill="url(#a)" cx="70" cy="70" r="70"/><path d="M93.962 40.562a3.416 3.416 0 110-6.833 3.416 3.416 0 010 6.833M105.781 1C92.35 1 81.46 11.89 81.46 25.324s10.89 24.324 24.323 24.324c13.435 0 24.326-10.89 24.326-24.324C130.108 11.89 119.217 1 105.783 1" fill="#15C7A0"/><path d="M70.507 119.894l-6.429-5.745a1.448 1.448 0 01-.48-1.077V85.228h9.316v33.59c0 1.247-1.476 1.907-2.407 1.076" fill="#D7D7D7"/><path d="M69.327 113.2V85.228" stroke="#A7A7A7" stroke-width="2" stroke-linecap="round"/><path d="M74.32 60.19a3.417 3.417 0 11.001-6.835 3.417 3.417 0 010 6.834m-6.065-13.607C59.278 46.582 52 53.86 52 62.837V82.34a2.889 2.889 0 002.888 2.89h26.735a2.888 2.888 0 002.888-2.89V62.837c0-8.978-7.278-16.255-16.255-16.255" fill="#424242"/><path d="M72.915 70.991a4.659 4.659 0 11-9.318-.002 4.659 4.659 0 019.318.002" fill="#727272"/><path d="M72.915 70.991a4.659 4.659 0 11-9.318-.002 4.659 4.659 0 019.318.002zm25.049-22.998c-.698 6.963-6.5 12.42-13.61 12.575" stroke="#D7D7D7" stroke-width="2"/><path d="M95.288 14.83a14.795 14.795 0 0110.495-4.348 14.79 14.79 0 0110.492 4.346m-18.854 22.34a3.439 3.439 0 11-6.877 0 3.439 3.439 0 016.877 0z" stroke="#83E7C6" stroke-width="2"/><path d="M77.114 58.736a13.983 13.983 0 01-7.06-12.154c0-7.384 5.72-13.432 12.972-13.953a13.978 13.978 0 0112.799 6.404" stroke="#D7D7D7" stroke-width="2"/><path d="M125.456 29.687H112.08l-7.033-10.745c-1.468-2.243-4.756-2.243-6.225 0l-7.033 10.745-5.68.004a20.262 20.262 0 01-.474-4.367c0-11.127 9.02-20.148 20.148-20.148 11.127 0 20.148 9.021 20.148 20.148 0 1.391-.206 3.051-.475 4.363z" stroke="#83E7C6" stroke-width="2"/><path d="M107.007 21.937h0c1.525-2.33 4.91-2.419 6.554-.172l5.798 7.922m-17.349 4.482h22.116m-24.115-4.478h24.115m-22.296 8.955h19.105m-22.159 4.478h17.442" stroke="#83E7C6" stroke-width="2"/></g></svg>