<svg width="140" height="140" viewBox="0 0 140 140" xmlns="http://www.w3.org/2000/svg" xmlns:xlink="http://www.w3.org/1999/xlink"><defs><linearGradient x1="4.806%" y1="4.806%" x2="100%" y2="100%" id="a"><stop stop-color="#F1FCFA" offset="0%"/><stop stop-color="#E1F3EF" offset="100%"/></linearGradient><path id="b" d="M62.166.043H.16v46.58h62.006V.043z"/></defs><g fill="none" fill-rule="evenodd"><circle fill="url(#a)" cx="70" cy="70" r="70"/><g transform="translate(39 33.957)"><mask id="c" fill="#fff"><use xlink:href="#b"/></mask><path fill="#2A9470" mask="url(#c)" d="M62.166 27.722L10.234 46.623.159 18.945 52.093.042z"/></g><path d="M42 103.958a5 5 0 01-5-5V62.29a5 5 0 015-5h51.666a5 5 0 015 5v36.667a5 5 0 01-5 5H42.002z" fill="#947962"/><path fill="#00AF84" d="M101.215 66.77L46.79 76.367 41.674 47.36l54.427-9.597z"/><path fill="#97E5CB" d="M105.9 68.591l-54.425 9.597L46.36 49.18l54.426-9.597z"/><path stroke="#00C492" stroke-width="2" d="M102.565 66.284L53.82 74.879l-4.124-23.391 48.745-8.596zm-51.522-7.151l6.267-8.95m42.437.363l-8.95-6.267m10.384 14.404l-6.267 8.95m-42.435-.362l8.949 6.267"/><path d="M83.116 57.654a7.094 7.094 0 11-13.969 2.462 7.094 7.094 0 0113.969-2.462z" stroke="#00C492" stroke-width="2"/><path d="M42 103.958a5 5 0 01-5-5V62.29a5 5 0 015-5h47.882a5 5 0 015 5v36.667a5 5 0 01-5 5H42z" fill="#CBAC92"/><path d="M98.666 86.448H86.204a5.788 5.788 0 010-11.574h12.462v11.574z" fill="#DAC5B2"/><path d="M88.83 80.66a2.626 2.626 0 11-5.253 0 2.626 2.626 0 015.253 0" fill="#897059"/></g></svg>